<svg xmlns="http://www.w3.org/2000/svg" width="56" height="48"><defs><filter id="a" width="1.608" height="1.894" x="-.304" y="-.332"><feGaussianBlur in="SourceAlpha" stdDeviation="3"/><feOffset dy="4" result="offsetblur"/><feComponentTransfer><feFuncA slope=".05" type="linear"/></feComponentTransfer><feMerge><feMergeNode/><feMergeNode in="SourceGraphic"/></feMerge></filter></defs><g filter="url(#a)" transform="translate(16 -2)"><path fill="orange" d="m17.2 6.64.96-.48.48-.96.56.96.96.48-.96.56-.56.96-.48-.96z" class="am-weather-moon-star-1"/><path fill="orange" d="m33.2 14.64.96-.48.48-.96.56.96.96.48-.96.56-.56.96-.48-.96z" class="am-weather-moon-star-2"/><path fill="orange" stroke="orange" stroke-linejoin="round" stroke-width="1.6" d="M27.6 14.56c0-2.96 1.6-5.52 4-6.96-1.2-.72-2.56-1.04-4-1.04-4.4 0-8 3.6-8 8s3.6 8 8 8c1.44 0 2.8-.4 4-1.04-2.4-1.36-4-4-4-6.96z" class="am-weather-moon"/></g></svg>