<svg xmlns="http://www.w3.org/2000/svg" width="56" height="48"><defs><filter id="a" width="1.403" height="1.694" x="-.207" y="-.285"><feGaussianBlur in="SourceAlpha" stdDeviation="3"/><feOffset dy="4" result="offsetblur"/><feComponentTransfer><feFuncA slope=".05" type="linear"/></feComponentTransfer><feMerge><feMergeNode/><feMergeNode in="SourceGraphic"/></feMerge></filter></defs><g filter="url(#a)" transform="translate(20.083 3.554)"><g stroke="orange" stroke-width="2" class="am-weather-sun" transform="translate(0 16)"><path fill="none" stroke-linecap="round" d="M0 9v3m-6.364-5.636-2.121 2.121M-9 0h-3m5.636-6.364-2.121-2.121M0-9v-3m6.364 5.636 2.121-2.121M9 0h3M6.364 6.364l2.121 2.121"/><circle r="5" fill="orange"/></g><path fill="#c6deff" stroke="#fff" stroke-linejoin="round" stroke-width="1.2" d="M27.7 24.4c0-4.6-3.7-8.2-8.2-8.2-1 0-1.9.2-2.8.5-.3-3.4-3.1-6.2-6.6-6.2-3.7 0-6.7 3-6.7 6.7 0 .8.2 1.6.4 2.3-.3-.1-.7-.1-1-.1-3.7 0-6.7 3-6.7 6.7 0 3.6 2.9 6.6 6.5 6.7h17.2c4.4-.5 7.9-4 7.9-8.4z" class="am-weather-cloud-1"/></g></svg>