<svg xmlns="http://www.w3.org/2000/svg" width="56" height="48"><defs><filter id="a" width="1.403" height="1.487" x="-.207" y="-.206"><feGaussianBlur in="SourceAlpha" stdDeviation="3"/><feOffset dy="4" result="offsetblur"/><feComponentTransfer><feFuncA slope=".05" type="linear"/></feComponentTransfer><feMerge><feMergeNode/><feMergeNode in="SourceGraphic"/></feMerge></filter></defs><g filter="url(#a)" transform="translate(16 -2)"><g class="am-weather-sun" transform="translate(0 16)"><path stroke="orange" stroke-linecap="round" stroke-width="2" d="M0 9v3"/><path fill="none" stroke="orange" stroke-linecap="round" stroke-width="2" d="m-6.364 6.364-2.121 2.121M-9 0h-3M-6.364-6.364l-2.121-2.121M0-9v-3M6.364-6.364l2.121-2.121M9 0h3M6.364 6.364l2.121 2.121"/><circle r="5" fill="orange" stroke="orange" stroke-width="2"/></g><path fill="#57a0ee" stroke="#fff" stroke-linejoin="round" stroke-width="1.2" d="M27.7 24.4c0-4.6-3.7-8.2-8.2-8.2-1 0-1.9.2-2.8.5-.3-3.4-3.1-6.2-6.6-6.2-3.7 0-6.7 3-6.7 6.7 0 .8.2 1.6.4 2.3-.3-.1-.7-.1-1-.1-3.7 0-6.7 3-6.7 6.7 0 3.6 2.9 6.6 6.5 6.7h17.2c4.4-.5 7.9-4 7.9-8.4z" class="am-weather-cloud-3"/><g fill="none" stroke="#91c0f8" stroke-dasharray="4, 7" stroke-linecap="round" stroke-width="2" class="am-weather-rainy-2"><path d="M7.917 35.943 6.528 43.82" class="am-weather-rain-1"/><path d="m14.174 35.015-1.39 7.878" class="am-weather-rain-2"/></g></g></svg>