<svg xmlns="http://www.w3.org/2000/svg" xml:space="preserve" width="600" height="600"><path d="M487.54 12.08c-7.09 3.26-13.42 9.97-16.1 17.06-1.34 3.45-2.11 28.76-2.11 69.59v64.03l-39.49-29.72c-25.69-19.17-41.79-30.1-46.01-30.87-21.09-4.03-39.49 13.04-36.62 34.13.58 4.03 2.3 9.59 4.03 12.08 1.73 2.68 28.95 24.16 60.58 47.93l57.51 43.14v103.72c0 56.94-.57 103.14-1.34 102.76-12.28-6.33-174.85-100.27-176.57-102-1.53-1.34-5.18-25.69-9.97-69.21-4.22-36.81-8.44-69.98-9.59-74-2.49-8.63-13.04-18.21-22.05-19.94-9.97-1.92-19.36.58-26.84 7.09-11.31 9.97-11.69 14.19-5.75 66.52 2.88 25.5 4.79 46.97 4.41 47.93-.19.96-24.73-12.46-54.25-29.52-29.52-17.25-56.55-31.82-59.81-32.59-10.54-2.11-19.94.77-27.61 8.63-11.31 11.12-12.46 28.57-2.68 40.07 2.49 3.07 29.14 19.56 59.24 37 29.91 17.25 54.26 31.82 53.87 32.21-.38.38-19.94 8.82-43.52 18.79-32.59 13.8-44.28 19.55-48.89 24.54-17.83 18.79-3.64 50.8 22.62 50.8 3.26 0 34.12-12.08 71.89-27.99l65.95-27.99 89.15 51.38c49.08 28.37 89.15 51.95 89.15 52.53 0 .57-40.07 24.16-89.15 52.53l-89.15 51.38-65.76-27.99c-38.72-16.49-68.44-28-72.08-28-26.27 0-40.64 31.83-22.62 50.8 4.79 4.99 15.91 10.54 48.31 24.16 23.2 9.78 42.75 18.21 43.52 18.79.77.58-23.2 15.34-53.3 32.59-29.91 17.25-56.75 33.93-59.24 37-17.83 21.09 2.68 54.25 30.29 48.7 3.26-.77 30.29-15.34 59.81-32.59 29.52-17.06 54.06-30.48 54.25-29.52.38.96-1.53 22.43-4.41 47.93-5.94 52.34-5.56 56.55 5.75 66.52 16.3 14.18 43.33 7.09 48.89-12.85 1.15-4.03 5.37-37.19 9.59-74 4.98-43.9 8.24-67.68 9.97-69.21 1.72-1.72 164.3-95.47 176.57-101.99.77-.38 1.34 45.82 1.34 102.76V760.9l-57.51 43.13c-31.63 23.77-58.86 45.24-60.58 47.93-1.72 2.49-3.45 8.05-4.03 12.08-2.88 21.09 15.53 38.15 36.62 34.13 4.22-.77 20.32-11.69 45.82-30.87l39.49-29.71.58 66.91c.57 64.22.77 67.29 4.6 72.27C481.79 986.93 487.92 990 500 990c12.08 0 18.21-3.07 25.69-13.23 3.83-4.98 4.03-8.05 4.6-72.27l.58-66.91 39.49 29.71c25.5 19.17 41.6 30.1 45.82 30.87 21.09 4.03 39.49-13.04 36.62-34.13-.57-4.02-2.3-9.58-4.03-12.08-1.72-2.68-28.95-24.15-60.58-47.93l-57.52-43.13V657.18c0-56.94.57-103.14 1.53-102.76 12.08 6.33 174.65 100.27 176.38 101.99 1.53 1.34 4.99 25.5 9.97 69.21 4.22 36.81 8.44 69.97 9.59 74 5.56 19.94 32.78 27.03 48.89 12.85 11.31-9.97 11.69-14.38 5.75-65.76-2.68-24.92-4.79-46.39-4.41-47.74.38-1.73 18.98 8.05 54.25 28.57 29.52 17.25 56.55 31.82 60.01 32.59 10.35 2.11 19.75-.77 27.41-8.63 11.31-11.12 12.46-28.57 2.68-40.07-2.49-3.07-29.14-19.55-59.24-37-30.1-17.25-54.06-32.02-53.29-32.59.77-.57 20.32-9.01 43.52-18.79 32.4-13.61 43.52-19.17 48.31-24.16 18.02-18.98 3.64-50.8-22.62-50.8-3.64 0-33.36 11.5-72.08 27.99l-65.76 27.99-89.15-51.38c-49.08-28.37-89.15-51.95-89.15-52.53 0-.58 40.07-24.16 89.15-52.53l89.15-51.38 65.94 28.01c37.77 15.91 68.63 27.99 71.89 27.99 26.26 0 40.45-32.02 22.62-50.8-4.79-4.98-15.91-10.54-48.31-24.16-23.2-9.78-42.75-18.21-43.52-18.79-.77-.58 23.2-15.34 53.29-32.59 30.1-17.45 56.75-33.93 59.24-37 17.83-21.09-2.68-54.25-30.1-48.69-3.45.77-30.48 15.34-60.01 32.59-34.89 20.13-53.87 30.29-54.25 28.56-.38-1.34 1.72-22.81 4.41-47.74 5.94-51.38 5.56-55.79-5.75-65.76-16.1-14.19-43.33-7.09-48.89 12.84-1.15 4.03-5.37 37.19-9.59 74s-8.24 67.67-9.01 68.44c-1.34 1.34-162.96 95.09-174.46 101.22l-4.41 2.3V239.43l57.51-43.14c31.63-23.77 58.86-45.24 60.58-47.93 1.73-2.49 3.45-8.05 4.03-12.08 2.88-21.09-15.53-38.15-36.62-34.13-4.22.77-20.32 11.69-45.82 30.87l-39.49 29.72-.58-66.91c-.57-64.22-.77-67.29-4.6-72.28-2.11-2.88-6.13-7.09-8.82-9.01-6.49-4.76-21.63-6.1-29.3-2.46z" style="stroke:none;stroke-width:1;stroke-dasharray:none;stroke-linecap:butt;stroke-dashoffset:0;stroke-linejoin:miter;stroke-miterlimit:4;fill:#4c4c4c;fill-rule:nonzero;opacity:1" transform="matrix(.34 0 0 .34 126.243 121.74)"/></svg>