<svg xmlns="http://www.w3.org/2000/svg" width="800" height="800" class="bi bi-snow2" viewBox="0 0 16 16"><path fill="#56A0EE" d="M8 13.402a.356.338 0 0 1-.356-.338v-.873l-.46.437a.356.338 0 0 1-.503-.478l.963-.914v-.733l-.46.437a.356.338 0 0 1-.503-.478l.963-.914v-.963l-.88.481-.352 1.25a.356.338 0 1 1-.687-.176l.169-.596-.669.366-.353 1.25a.356.338 0 1 1-.687-.176l.169-.596-.797.437a.356.338 0 0 1-.355-.585l.796-.436-.629-.16a.356.338 0 1 1 .185-.653l1.315.335.669-.366-.628-.16a.356.338 0 1 1 .184-.653l1.316.334L7.288 8l-.88-.481-1.314.334A.356.338 0 1 1 4.91 7.2l.628-.16-.668-.367-1.316.335a.356.338 0 0 1-.184-.653l.628-.16-.796-.436a.356.338 0 1 1 .355-.585l.797.437-.169-.597a.356.338 0 0 1 .687-.174l.353 1.249.668.366-.168-.597a.356.338 0 0 1 .687-.174l.352 1.249.88.481v-.963l-.963-.914a.356.338 0 1 1 .503-.478l.46.437v-.733L6.68 3.85a.356.338 0 1 1 .503-.478l.46.437v-.873a.356.338 0 0 1 .711 0v.873l.46-.437a.356.338 0 1 1 .503.478l-.963.914v.733l.46-.437a.356.338 0 1 1 .503.478l-.963.914v.963l.88-.481.351-1.25a.356.338 0 1 1 .687.176l-.168.596.67-.366.351-1.25a.356.338 0 1 1 .687.176l-.168.596.797-.437a.356.338 0 0 1 .356.585L12 6.196l.628.16a.356.338 0 1 1-.185.653l-1.314-.335-.669.366.628.16a.356.338 0 1 1-.185.653L9.59 7.519 8.71 8l.88.481 1.315-.334a.356.338 0 0 1 .184.652l-.628.16.669.367 1.315-.335a.356.338 0 0 1 .184.653l-.628.16.797.436a.356.338 0 0 1-.356.585l-.797-.437.168.597a.356.338 0 1 1-.687.174l-.352-1.249-.669-.366.168.597a.356.338 0 0 1-.687.174l-.352-1.248-.879-.482v.963l.963.914a.356.338 0 0 1-.503.478l-.46-.437v.733l.963.914a.356.338 0 0 1-.503.478l-.46-.437v.873a.356.338 0 0 1-.356.338z" style="stroke-width:.69304"/></svg>