<svg xmlns="http://www.w3.org/2000/svg" xml:space="preserve" width="64" height="64"><path d="M53.387 24.656C50.048 16.086 41.753 10 32 10s-18.048 6.086-21.387 14.655C4.47 26.532 0 32.243 0 39c0 8.284 6.716 15 15 15h34c8.284 0 15-6.716 15-15 0-6.757-4.471-12.468-10.613-14.344zM49 48H15a9 9 0 0 1-9-9 8.967 8.967 0 0 1 3.634-7.213l.04-.03c.194-.144.395-.278.601-.406l.096-.058c.192-.116.388-.225.588-.326.055-.028.111-.054.167-.08.184-.089.371-.172.561-.248.083-.033.168-.062.252-.092.171-.062.343-.123.519-.175.116-.034.236-.062.354-.091.152-.038.303-.079.457-.109.162-.032.328-.053.493-.075.119-.016.236-.039.356-.05.29-.03.584-.047.882-.047.094 0 .185.011.278.014.091-.513.206-1.017.342-1.512.033-.121.078-.237.114-.357.112-.375.227-.749.364-1.112.041-.11.092-.215.135-.324.148-.37.3-.737.473-1.093.042-.086.09-.168.133-.253.188-.372.384-.741.598-1.097C20.406 19.318 25.808 16 32 16c6.191 0 11.596 3.318 14.562 8.266.213.357.41.725.599 1.097.043.085.091.167.133.253.173.356.325.724.474 1.093.043.109.094.214.135.324.137.363.252.737.363 1.112.036.12.082.236.114.357.136.495.251.999.343 1.512.091-.003.183-.014.277-.014.298 0 .592.016.882.045.12.012.237.034.356.05.164.023.33.043.492.075.156.03.307.07.457.109.119.029.238.057.354.091.176.052.349.113.519.175.084.031.17.059.252.092a9.389 9.389 0 0 1 1.317.654l.096.058c.207.128.406.263.602.406l.04.03A8.978 8.978 0 0 1 58 39a9 9 0 0 1-9 9z" /></svg>