<svg xmlns="http://www.w3.org/2000/svg" xml:space="preserve" width="64" height="64"><path d="M48.005 26.33C45.507 19.716 39.298 15.018 32 15.018c-7.299 0-13.506 4.698-16.005 11.313-4.597 1.45-7.942 5.858-7.942 11.074 0 6.394 5.026 11.579 11.226 11.579H44.72c6.2 0 11.226-5.185 11.226-11.58 0-5.215-3.346-9.624-7.942-11.072zM44.72 44.352H19.28a6.735 6.948 0 0 1-6.736-6.947 6.71 6.922 0 0 1 2.72-5.568l.03-.024a6.71 6.71 0 0 1 .45-.313l.07-.045a6.586 6.611 0 0 1 .986-.505c.062-.025.125-.047.188-.07.129-.048.257-.095.39-.136.086-.026.175-.047.264-.07.113-.029.227-.061.341-.085.123-.024.246-.04.37-.056.089-.014.176-.031.266-.04a6.35 6.35 0 0 1 .66-.036c.07 0 .139.009.208.01.068-.395.154-.784.257-1.166.024-.094.058-.183.084-.276.085-.29.17-.578.273-.858.03-.085.069-.167.101-.25.111-.286.224-.57.354-.844.031-.067.067-.13.1-.195.14-.287.287-.573.447-.848 2.221-3.819 6.264-6.38 10.898-6.38 4.633 0 8.679 2.56 10.897 6.38.16.276.307.56.448.848.033.066.069.128.1.195.13.275.243.559.355.843.032.085.07.166.1.25.104.281.189.57.273.859.026.093.06.182.084.276.103.382.189.77.257 1.166.07-.001.138-.01.207-.01.224 0 .444.012.661.035.09.01.177.027.267.038.122.019.246.034.367.058.117.023.23.054.342.085.09.022.18.044.266.07.132.04.26.087.388.135.063.024.127.045.188.07a7.026 7.247 0 0 1 .986.506l.072.044c.154.1.304.203.45.314l.03.023a6.719 6.93 0 0 1 2.72 5.57 6.735 6.948 0 0 1-6.737 6.947z" style="stroke-width:.760052"/></svg>