<svg xmlns="http://www.w3.org/2000/svg" width="56" height="48"><defs><filter id="a" width="1.494" height="1.558" x="-.247" y="-.229"><feGaussianBlur in="SourceAlpha" stdDeviation="3"/><feOffset dy="4" result="offsetblur"/><feComponentTransfer><feFuncA slope=".05" type="linear"/></feComponentTransfer><feMerge><feMergeNode/><feMergeNode in="SourceGraphic"/></feMerge></filter></defs><g filter="url(#a)" transform="translate(16 -2)"><path fill="#57a0ee" stroke="#fff" stroke-linejoin="round" stroke-width="1.2" d="M27.7 24.4c0-4.6-3.7-8.2-8.2-8.2-1 0-1.9.2-2.8.5-.3-3.4-3.1-6.2-6.6-6.2-3.7 0-6.7 3-6.7 6.7 0 .8.2 1.6.4 2.3-.3-.1-.7-.1-1-.1-3.7 0-6.7 3-6.7 6.7 0 3.6 2.9 6.6 6.5 6.7h17.2c4.4-.5 7.9-4 7.9-8.4z" class="am-weather-cloud-3"/><g fill="none" stroke="#91c0f8" stroke-dasharray="4, 4" stroke-linecap="round" stroke-width="2" class="am-weather-rainy-3"><path d="m6.888 36.29-1.39 7.879" class="am-weather-rain-1"/><path d="m11.174 35.015-1.389 7.879" class="am-weather-rain-2"/><path d="m14.94 36.694-1.39 7.879" class="am-weather-rain-1"/></g></g></svg>